HIERARCHY
ROOT Hips
{
	OFFSET 0.000000 0.000000 0.000000
	CHANNELS 6 Xposition Yposition Zposition Zrotation Yrotation Xrotation 
	JOINT LHipJoint
	{
		OFFSET 0.000000 0.000000 0.000000
		CHANNELS 3 Zrotation Yrotation Xrotation
		JOINT LeftUpLeg
		{
			OFFSET 1.363060 -1.794630 0.839290
			CHANNELS 3 Zrotation Yrotation Xrotation
			JOINT LeftLeg
			{
				OFFSET 2.448110 -6.726130 0.000000
				CHANNELS 3 Zrotation Yrotation Xrotation
				JOINT LeftFoot
				{
					OFFSET 2.562200 -7.039590 0.000000
					CHANNELS 3 Zrotation Yrotation Xrotation
					JOINT LeftToeBase
					{
						OFFSET 0.157640 -0.433110 2.322550
						CHANNELS 3 Zrotation Yrotation Xrotation
						End Site
						{
							OFFSET 0.000000 0.000000 0.000000
						}
					}
				}
			}
		}
	}
	JOINT RHipJoint
	{
		OFFSET 0.000000 0.000000 0.000000
		CHANNELS 3 Zrotation Yrotation Xrotation
		JOINT RightUpLeg
		{
			OFFSET -1.305520 -1.794630 0.839290
			CHANNELS 3 Zrotation Yrotation Xrotation
			JOINT RightLeg
			{
				OFFSET -2.542530 -6.985550 0.000000
				CHANNELS 3 Zrotation Yrotation Xrotation
				JOINT RightFoot
				{
					OFFSET -2.568260 -7.056230 0.000000
					CHANNELS 3 Zrotation Yrotation Xrotation
					JOINT RightToeBase
					{
						OFFSET -0.164730 -0.452590 2.363150
						CHANNELS 3 Zrotation Yrotation Xrotation
						End Site
						{
							OFFSET 0.000000 0.000000 0.000000
						}
					}
				}
			}
		}
	}
}
MOTION
Frames: 19
Frame Time: 0.008333
3.391316 17.185840 1.142598 -179.657122 -69.936084 -170.974657 -11.793740 1.918611 -1.529176 -5.004856 29.264531 -13.206504 -3.014511 -1.166286 0.525332 0.940861 7.834800 -0.909202 0.892200 -0.000000 -33.896600 9.295954 -2.105397 4.521278 0.232100 3.926828 -11.338732 2.711480 1.443438 -3.768134 0.807098 5.127768 3.639546 0.555000 -0.000000 -46.638300
3.392265 17.185971 1.140862 -179.553991 -69.676974 -171.070836 -11.805668 1.915867 -1.550328 -4.962912 29.416436 -13.244594 -3.015099 -1.160728 0.617251 0.955248 7.937332 -0.958874 0.894700 -0.000000 -33.875300 9.275308 -2.114405 4.569527 0.257897 4.107056 -11.354411 2.723938 1.453164 -3.858541 0.825734 5.219579 3.723238 0.573900 0.000000 -46.577300
3.394212 17.186125 1.139129 -179.463074 -69.433532 -171.169190 -11.818414 1.913631 -1.568075 -4.914868 29.551168 -13.265552 -3.013126 -1.155813 0.700662 0.970152 8.047318 -1.000131 0.899200 0.000000 -33.857099 9.255086 -2.124863 4.613468 0.285675 4.267611 -11.357484 2.736401 1.461870 -3.947981 0.845066 5.316412 3.809099 0.594201 -0.000000 -46.526700
3.397281 17.186220 1.137517 -179.371830 -69.211729 -171.283046 -11.832787 1.911561 -1.584181 -4.856922 29.688499 -13.284625 -3.011415 -1.150005 0.794892 0.982394 8.136943 -1.040159 0.901300 0.000000 -33.843800 9.234183 -2.137249 4.653239 0.322168 4.403895 -11.345156 2.749846 1.470537 -4.039112 0.864984 5.415746 3.898022 0.614900 0.000000 -46.479500
3.401334 17.186345 1.135894 -179.290253 -69.019988 -171.399628 -11.847709 1.910528 -1.594446 -4.793836 29.803628 -13.292021 -3.007649 -1.144656 0.881922 0.993861 8.223018 -1.071490 0.904500 -0.000001 -33.834800 9.213985 -2.151025 4.687806 0.362483 4.512568 -11.320148 2.763131 1.478497 -4.127346 0.884756 5.512844 3.986503 0.635201 0.000000 -46.443900
3.406306 17.186486 1.134276 -179.212520 -68.863869 -171.523111 -11.863096 1.910657 -1.598829 -4.725173 29.899835 -13.293964 -3.002787 -1.139117 0.966415 1.003293 8.294304 -1.095368 0.907200 -0.000000 -33.831700 9.194375 -2.165681 4.716712 0.409069 4.591747 -11.282788 2.776330 1.486043 -4.210711 0.903437 5.602218 4.072651 0.653900 0.000000 -46.418501
3.412296 17.186659 1.132618 -179.140172 -68.748803 -171.651875 -11.878134 1.912162 -1.596382 -4.652546 29.970765 -13.291484 -2.996637 -1.133283 1.044767 1.010677 8.350076 -1.110743 0.909700 -0.000001 -33.835500 9.176009 -2.179927 4.738841 0.461748 4.639803 -11.234972 2.789052 1.493100 -4.285688 0.920442 5.678661 4.153230 0.669700 -0.000001 -46.404899
3.418893 17.186944 1.130896 -179.069726 -68.678952 -171.781824 -11.892098 1.915553 -1.585682 -4.579574 30.009828 -13.287989 -2.989203 -1.127228 1.112215 1.016125 8.390782 -1.114810 0.912600 0.000000 -33.845100 9.159403 -2.192830 4.754135 0.519668 4.657162 -11.181736 2.800953 1.499767 -4.349024 0.934425 5.736006 4.226370 0.681300 -0.000000 -46.403100
3.426279 17.187177 1.129318 -178.983156 -68.655488 -171.932026 -11.905119 1.919475 -1.571838 -4.497924 30.035228 -13.289667 -2.982570 -1.119341 1.181137 1.017156 8.394132 -1.114462 0.912000 0.000000 -33.866900 9.144111 -2.202701 4.760136 0.589788 4.646258 -11.119962 2.812595 1.506171 -4.395949 0.944805 5.768698 4.286815 0.687500 0.000000 -46.408800
3.434017 17.187633 1.127597 -178.896552 -68.680394 -172.076913 -11.915112 1.925332 -1.549447 -4.421495 30.015862 -13.291972 -2.974160 -1.111435 1.226805 1.017064 8.388182 -1.097861 0.913599 -0.000000 -33.893200 9.132264 -2.208125 4.757071 0.663263 4.605757 -11.061289 2.822751 1.512075 -4.426045 0.950927 5.774742 4.336143 0.688000 -0.000000 -46.426300
3.442038 17.188169 1.126006 -178.785944 -68.751881 -172.237310 -11.922583 1.931312 -1.524758 -4.340963 29.973918 -13.301754 -2.966359 -1.102077 1.262135 1.013332 8.350469 -1.072472 0.913200 -0.000000 -33.931000 9.123012 -2.207836 4.742840 0.748058 4.540647 -11.003355 2.832279 1.517742 -4.435592 0.952102 5.750149 4.369857 0.681900 0.000000 -46.451600
3.450298 17.188733 1.124628 -178.645851 -68.865605 -172.416066 -11.927240 1.936629 -1.499998 -4.256080 29.913177 -13.321356 -2.959633 -1.091092 1.285593 1.005847 8.279427 -1.038624 0.910600 -0.000000 -33.980201 9.116356 -2.200495 4.716623 0.845280 4.455649 -10.950125 2.841219 1.523158 -4.422024 0.948026 5.692355 4.386419 0.668400 0.000000 -46.481100
3.458401 17.189560 1.123293 -178.484854 -69.016613 -172.597461 -11.928562 1.942368 -1.472949 -4.174911 29.819266 -13.345109 -2.952534 -1.079698 1.280380 0.996745 8.193796 -0.988245 0.909299 -0.000000 -34.035900 9.113306 -2.185378 4.677966 0.949586 4.347859 -10.906774 2.849431 1.528534 -4.389816 0.939612 5.608316 4.390656 0.649200 -0.000000 -46.516000
3.466349 17.190574 1.122225 -178.295127 -69.196747 -172.790257 -11.927291 1.947862 -1.446541 -4.093744 29.704584 -13.374093 -2.945920 -1.067415 1.249167 0.985374 8.087790 -0.923478 0.908000 -0.000000 -34.098899 9.113029 -2.161931 4.626440 1.063718 4.221125 -10.873177 2.857494 1.534084 -4.339013 0.927532 5.499703 4.383012 0.624600 0.000000 -46.552500
3.473978 17.191779 1.121430 -178.076069 -69.397304 -172.994329 -11.924125 1.953558 -1.421113 -4.013016 29.574130 -13.406402 -2.939903 -1.054425 1.188994 0.972034 7.963935 -0.844273 0.906800 -0.000000 -34.168901 9.114942 -2.130232 4.562750 1.187315 4.077284 -10.849798 2.865894 1.540196 -4.272405 0.912760 5.372088 4.365808 0.595600 -0.000001 -46.589000
3.481161 17.193174 1.120980 -177.828361 -69.608775 -173.210261 -11.919854 1.960162 -1.396458 -3.933005 29.433379 -13.439708 -2.934465 -1.040870 1.097504 0.957055 7.825161 -0.750126 0.906001 -0.000000 -34.244401 9.118412 -2.090717 4.488101 1.319925 3.917480 -10.836381 2.875159 1.547260 -4.193514 0.896306 5.231855 4.342446 0.563300 0.000000 -46.623800
3.487832 17.194726 1.120957 -177.553699 -69.822045 -173.438659 -11.915213 1.968483 -1.372051 -3.854207 29.288606 -13.472851 -2.929666 -1.026832 0.974072 0.940683 7.673573 -0.641370 0.905400 -0.000000 -34.323900 9.122781 -2.044081 4.404430 1.460585 3.743863 -10.832634 2.885749 1.555701 -4.106188 0.879433 5.084691 4.316329 0.529000 -0.000000 -46.655200
3.493946 17.196418 1.121343 -177.259742 -70.029050 -173.675409 -11.910525 1.979746 -1.346615 -3.778286 29.141085 -13.501094 -2.925023 -1.012724 0.815319 0.923674 7.515698 -0.518021 0.905500 0.000000 -34.407000 9.128086 -1.991045 4.313196 1.606769 3.555531 -10.836496 2.897973 1.565910 -4.015685 0.863494 4.938920 4.290635 0.494200 -0.000000 -46.683800
3.499401 17.198219 1.122206 -176.947597 -70.222630 -173.921076 -11.906240 1.994733 -1.319118 -3.705851 28.997049 -13.526990 -2.920800 -0.998453 0.624866 0.906027 7.351046 -0.381817 0.906000 0.000001 -34.491500 9.133700 -1.932709 4.217412 1.757798 3.356768 -10.848408 2.912133 1.578312 -3.925157 0.849078 4.796766 4.268631 0.459600 0.000000 -46.708100
